<?xml version="1.0" encoding="utf-8"?>
<!-- Generator: Adobe Illustrator 18.0.0, SVG Export Plug-In . SVG Version: 6.00 Build 0)  -->
<!DOCTYPE svg PUBLIC "-//W3C//DTD SVG 1.1//EN" "http://www.w3.org/Graphics/SVG/1.1/DTD/svg11.dtd">
<svg version="1.1" id="Layer_1" xmlns="http://www.w3.org/2000/svg" xmlns:xlink="http://www.w3.org/1999/xlink" x="0px" y="0px"
	 viewBox="0 0 792 612" enable-background="new 0 0 792 612" xml:space="preserve">
<path fill="#BCBEC0" d="M294.5,129.2c-12.2,0-24.4-4.2-35.5-11.7c-19.3-13.8-26.4-38.2-19.3-56.3l16.2,7.4
	c-4.1,10.6,1,24.4,13.2,32.9c10.2,7.4,23.3,10.6,33.5,7.4c5.1-1.1,11.2-4.2,14.2-11.7l16.2,7.4c-5.1,10.6-14.2,19.1-25.4,22.3
	C303.6,128.1,298.5,129.2,294.5,129.2z"/>
<path fill="#BCBEC0" d="M134,390.2c-4.2,7.6,0,16.9,8.5,22L465,599.3c8.5,4.2,18.6,1.7,22.9-5.9l187.9-366.5c4.2-7.6,0-16.9-8.5-22
	L467.5,105c-8.5-4.2-18.6-1.7-22.9,5.9L225.4,419L134,390.2z"/>
<path fill="#939598" d="M143.3,364.8l-12.7,29.6c-3.4,7.6,0.8,16.9,9.3,21.2l340.3,154.1c8.5,4.2,18.6,0.8,22.9-6.8l170.1-375
	c3.4-7.6-0.8-16.9-9.3-21.2L322.8,11.9c-8.5-4.2-18.6-0.8-22.9,6.8L283,55.9c0,0,13.5-0.8,27.1,11.9l3.4-7.6
	c2.5-5.9,10.2-8.5,16.9-5.1l16.9,7.6c6.8,3.4,10.2,10.2,7.6,16.1l-12.7,28.8c-2.5,5.9-10.2,8.5-16.9,5.1l-16.9-7.6
	c-6.8-3.4-10.2-10.2-7.6-16.1l0,0c0,0-10.2-15.2-27.1-12.7l-54.2,121c17.8,0.8,27.1,12.7,27.1,12.7l1.7-4.2
	c2.5-5.9,10.2-8.5,16.9-5.1l16.9,7.6c6.8,3.4,10.2,10.2,7.6,16.1l-12.7,27.9c-2.5,5.9-10.2,8.5-16.9,5.1l-16.9-7.6
	c-6.8-3.4-10.2-10.2-7.6-16.1l0,0c0,0-8.5-16.9-27.1-12.7l-55,121.9c16.9,0.8,27.1,11.9,27.1,11.9l2.5-5.9
	c2.5-5.9,10.2-8.5,16.9-5.1l16.9,7.6c6.8,3.4,10.2,10.2,7.6,16.1l-12.7,27.9c-2.5,5.9-10.2,8.5-16.9,5.1l-16.9-7.6
	c-6.8-3.4-10.2-10.2-7.6-16.1l0,0C171.3,376.7,162.8,360.6,143.3,364.8z"/>
<path fill="#BCBEC0" d="M333,104.8l-16.2-7.4c3-7.4,1-14.9-1-19.1c-5.1-9.6-15.2-18.1-27.4-21.2c-14.2-3.2-28.4,1.1-32.5,11.7
	l-16.2-7.4c8.1-18.1,30.5-27.6,52.8-22.3c17.3,4.2,32.5,15.9,38.6,30.8C337.1,82.5,337.1,94.2,333,104.8z"/>
<path fill="#BCBEC0" d="M454,517.2l-193.8-88c-12.7-5.9-18.6-21.2-12.7-33.9l131.2-289.5c5.9-12.7,21.2-18.6,33.9-12.7l193.8,88
	C619,187.1,625,202.3,619,215L487,504.5C481.1,517.2,466.7,523.1,454,517.2z"/>
<g opacity="0.45">
	<path fill="none" d="M623.3,204c3.4-6.8,0-15.2-6.8-18.6l-131.2-59.3L564,335.2L623.3,204z"/>
	<polygon fill="none" points="558.1,347.9 473.5,121 406.6,90.6 528.5,414.8 	"/>
	<path fill="none" d="M332.1,209.1l-88.9,197.2c-3.4,6.8,0,15.2,6.8,18.6l197.2,89.7L332.1,209.1z"/>
	<polygon fill="none" points="510.7,452 379.5,104.1 360.9,144.7 492.1,493.5 	"/>
	<polygon fill="#FFFFFF" points="564,335.2 485.3,126.1 473.5,121 558.1,347.9 	"/>
	<path fill="#FFFFFF" d="M528.5,414.8L406.6,90.6l-4.2-1.7c-6.8-3.4-15.2,0-18.6,6.8l-3.4,8.5l131.2,348.7L528.5,414.8z"/>
	<path fill="#FFFFFF" d="M464.1,522.3c6.8,3.4,15.2,0,18.6-6.8l10.2-21.2l-132-349.6l-28.8,64.3l115.1,305.6L464.1,522.3z"/>
</g>
</svg>
